<?xml version="1.0" encoding="UTF-8" standalone="no"?>
<!-- Generated by graphviz version 2.30.1 (20150306.0020)
 -->

<!-- Title: snakemake_dag Pages: 1 -->

<svg
   width="307pt"
   height="404pt"
   viewBox="0.00 0.00 307.00 404.00"
   version="1.1"
   id="svg21"
   sodipodi:docname="workflow.svg"
   inkscape:version="1.4.2 (ebf0e940, 2025-05-08)"
   xmlns:inkscape="http://www.inkscape.org/namespaces/inkscape"
   xmlns:sodipodi="http://sodipodi.sourceforge.net/DTD/sodipodi-0.dtd"
   xmlns="http://www.w3.org/2000/svg"
   xmlns:svg="http://www.w3.org/2000/svg">
  <defs
     id="defs21" />
  <sodipodi:namedview
     id="namedview21"
     pagecolor="#ffffff"
     bordercolor="#000000"
     borderopacity="0.25"
     inkscape:showpageshadow="2"
     inkscape:pageopacity="0.0"
     inkscape:pagecheckerboard="0"
     inkscape:deskcolor="#d1d1d1"
     inkscape:document-units="pt"
     inkscape:zoom="1.1214363"
     inkscape:cx="88.725503"
     inkscape:cy="231.39968"
     inkscape:window-width="1800"
     inkscape:window-height="932"
     inkscape:window-x="0"
     inkscape:window-y="30"
     inkscape:window-maximized="0"
     inkscape:current-layer="graph0" />
  <g
     id="graph0"
     class="graph"
     transform="scale(1 1) rotate(0) translate(4 400)">
    <title
       id="title1">snakemake_dag</title>
    <rect
       style="fill:#fffefe;stroke-width:0.566929;stroke-linejoin:round;fill-opacity:1"
       id="rect1"
       width="306.30362"
       height="403.94623"
       x="-3.3312147"
       y="-399.33121" />
    <g
       id="edge5-2-6"
       class="edge"
       transform="matrix(-1.0312309,0,0,1.0312309,220.95162,76.567897)">
      <title
         id="title17-9-0">5-&gt;1</title>
      <path
         fill="none"
         stroke="#808080"
         stroke-width="1.58837"
         d="m 130.43732,-144.28509 c -10.97647,8.53714 -24.48348,19.04298 -36.383482,28.29866"
         id="path17-6-1" />
      <polygon
         fill="#808080"
         stroke="#808080"
         points="74.736,-117.007 79.0336,-111.481 68.9913,-108.104 "
         id="polygon17-9-0"
         transform="translate(16.864444,-1.5148169)" />
    </g>
    <!-- 0 -->
    <g
       id="node1"
       class="node">
      <title
         id="title2">0</title>
      <path
         fill="none"
         stroke="#569ad8"
         stroke-width="2"
         d="M169,-36C169,-36 139,-36 139,-36 133,-36 127,-30 127,-24 127,-24 127,-12 127,-12 127,-6 133,-0 139,-0 139,-0 169,-0 169,-0 175,-0 181,-6 181,-12 181,-12 181,-24 181,-24 181,-30 175,-36 169,-36"
         id="path2" />
      <text
         text-anchor="middle"
         x="154"
         y="-15.5"
         font-family="sans"
         font-size="10.00"
         id="text2"
         style="-inkscape-font-specification:'Arial, Normal';font-family:Arial;font-weight:normal;font-style:normal;font-stretch:normal;font-variant:normal;font-size:9.99999977px;font-variant-ligatures:normal;font-variant-caps:normal;font-variant-numeric:normal;font-variant-east-asian:normal">all</text>
    </g>
    <!-- 1 -->
    <g
       id="node2"
       class="node">
      <title
         id="title3">1</title>
      <path
         fill="none"
         stroke="#56d89a"
         stroke-width="2"
         d="M82.25,-108C82.25,-108 11.75,-108 11.75,-108 5.75,-108 -0.25,-102 -0.25,-96 -0.25,-96 -0.25,-84 -0.25,-84 -0.25,-78 5.75,-72 11.75,-72 11.75,-72 82.25,-72 82.25,-72 88.25,-72 94.25,-78 94.25,-84 94.25,-84 94.25,-96 94.25,-96 94.25,-102 88.25,-108 82.25,-108"
         id="path3" />
      <text
         text-anchor="middle"
         x="47"
         y="-87.5"
         font-family="sans"
         font-size="10.00"
         id="text3"
         style="-inkscape-font-specification:'Arial, Normal';font-family:Arial;font-weight:normal;font-style:normal;font-stretch:normal;font-variant:normal;font-size:9.99999977px;font-variant-ligatures:normal;font-variant-caps:normal;font-variant-numeric:normal;font-variant-east-asian:normal">plot_per_condition</text>
    </g>
    <!-- 1&#45;&gt;0 -->
    <!-- 2 -->
    <g
       id="node3"
       class="node"
       transform="translate(-13)">
      <title
         id="title5">2</title>
      <path
         fill="none"
         stroke="#56d8d8"
         stroke-width="2"
         d="m 182,-252 c 0,0 -30,0 -30,0 -6,0 -12,6 -12,12 0,0 0,12 0,12 0,6 6,12 12,12 0,0 30,0 30,0 6,0 12,-6 12,-12 0,0 0,-12 0,-12 0,-6 -6,-12 -12,-12"
         id="path5" />
      <text
         text-anchor="middle"
         x="167"
         y="-231.5"
         font-family="sans"
         font-size="10px"
         id="text5"
         style="-inkscape-font-specification:'Arial, Normal';font-family:Arial;font-weight:normal;font-style:normal;font-stretch:normal;font-variant:normal;font-size:9.99999977px;font-variant-ligatures:normal;font-variant-caps:normal;font-variant-numeric:normal;font-variant-east-asian:normal">combine</text>
    </g>
    <g
       id="edge5"
       class="edge">
      <title
         id="title17">5-&gt;1</title>
      <path
         fill="none"
         stroke="#808080"
         stroke-width="1.58837"
         d="m 130.43732,-144.28509 c -10.97647,8.53714 -24.48348,19.04298 -36.383482,28.29866"
         id="path17" />
      <polygon
         fill="#808080"
         stroke="#808080"
         points="74.736,-117.007 79.0336,-111.481 68.9913,-108.104 "
         id="polygon17"
         transform="translate(16.864444,-1.5148169)" />
    </g>
    <g
       id="edge5-5"
       class="edge"
       transform="matrix(-1,0,0,1,307.97432,0)">
      <title
         id="title17-1">5-&gt;1</title>
      <path
         fill="none"
         stroke="#808080"
         stroke-width="1.58837"
         d="m 130.43732,-144.28509 c -10.97647,8.53714 -24.48348,19.04298 -36.383482,28.29866"
         id="path17-5" />
      <polygon
         fill="#808080"
         stroke="#808080"
         points="74.736,-117.007 79.0336,-111.481 68.9913,-108.104 "
         id="polygon17-2"
         transform="translate(16.864444,-1.5148169)" />
    </g>
    <!-- 2&#45;&gt;1 -->
    <!-- 5 -->
    <g
       id="node6"
       class="node"
       transform="translate(17)">
      <title
         id="title7">5</title>
      <path
         fill="none"
         stroke="#97d856"
         stroke-width="2"
         d="m 156.25,-180 c 0,0 -38.5,0 -38.5,0 -6,0 -12,6 -12,12 0,0 0,12 0,12 0,6 6,12 12,12 0,0 38.5,0 38.5,0 6,0 12,-6 12,-12 0,0 0,-12 0,-12 0,-6 -6,-12 -12,-12"
         id="path7" />
      <text
         text-anchor="middle"
         x="137"
         y="-159.5"
         font-family="sans"
         font-size="10px"
         id="text7"
         style="-inkscape-font-specification:'Arial, Normal';font-family:Arial;font-weight:normal;font-style:normal;font-stretch:normal;font-variant:normal;font-size:9.99999977px;font-variant-ligatures:normal;font-variant-caps:normal;font-variant-numeric:normal;font-variant-east-asian:normal">axis_limits</text>
    </g>
    <!-- 2&#45;&gt;5 -->
    <g
       id="edge8"
       class="edge">
      <title
         id="title8">2-&gt;5</title>
    </g>
    <!-- 6 -->
    <g
       id="node7"
       class="node">
      <title
         id="title9">6</title>
      <path
         fill="none"
         stroke="#d85656"
         stroke-width="2"
         d="M183.25,-108C183.25,-108 124.75,-108 124.75,-108 118.75,-108 112.75,-102 112.75,-96 112.75,-96 112.75,-84 112.75,-84 112.75,-78 118.75,-72 124.75,-72 124.75,-72 183.25,-72 183.25,-72 189.25,-72 195.25,-78 195.25,-84 195.25,-84 195.25,-96 195.25,-96 195.25,-102 189.25,-108 183.25,-108"
         id="path9" />
      <text
         text-anchor="middle"
         x="154"
         y="-87.5"
         font-family="sans"
         font-size="10.00"
         id="text9"
         style="-inkscape-font-specification:'Arial, Normal';font-family:Arial;font-weight:normal;font-style:normal;font-stretch:normal;font-variant:normal;font-size:9.99999977px;font-variant-ligatures:normal;font-variant-caps:normal;font-variant-numeric:normal;font-variant-east-asian:normal">plot_overlay_fc</text>
    </g>
    <g
       id="edge5-2"
       class="edge"
       transform="matrix(1.0312309,0,0,1.0312309,86.979904,76.538415)">
      <title
         id="title17-9">5-&gt;1</title>
      <path
         fill="none"
         stroke="#808080"
         stroke-width="1.58837"
         d="m 130.43732,-144.28509 c -10.97647,8.53714 -24.48348,19.04298 -36.383482,28.29866"
         id="path17-6" />
      <polygon
         fill="#808080"
         stroke="#808080"
         points="74.736,-117.007 79.0336,-111.481 68.9913,-108.104 "
         id="polygon17-9"
         transform="translate(16.864444,-1.5148169)" />
    </g>
    <!-- 2&#45;&gt;6 -->
    <!-- 7 -->
    <g
       id="node8"
       class="node">
      <title
         id="title11">7</title>
      <path
         fill="none"
         stroke="#d6d856"
         stroke-width="2"
         d="M286.25,-108C286.25,-108 225.75,-108 225.75,-108 219.75,-108 213.75,-102 213.75,-96 213.75,-96 213.75,-84 213.75,-84 213.75,-78 219.75,-72 225.75,-72 225.75,-72 286.25,-72 286.25,-72 292.25,-72 298.25,-78 298.25,-84 298.25,-84 298.25,-96 298.25,-96 298.25,-102 292.25,-108 286.25,-108"
         id="path11" />
      <text
         text-anchor="middle"
         x="256"
         y="-87.5"
         font-family="sans"
         font-size="10.00"
         id="text11"
         style="-inkscape-font-specification:'Arial, Normal';font-family:Arial;font-weight:normal;font-style:normal;font-stretch:normal;font-variant:normal;font-size:9.99999977px;font-variant-ligatures:normal;font-variant-caps:normal;font-variant-numeric:normal;font-variant-east-asian:normal">plot_overlay_ps</text>
    </g>
    <!-- 2&#45;&gt;7 -->
    <!-- 3 -->
    <g
       id="node4"
       class="node"
       transform="translate(-13)">
      <title
         id="title13">3</title>
      <path
         fill="none"
         stroke="#d89556"
         stroke-width="2"
         d="m 182,-324 c 0,0 -30,0 -30,0 -6,0 -12,6 -12,12 0,0 0,12 0,12 0,6 6,12 12,12 0,0 30,0 30,0 6,0 12,-6 12,-12 0,0 0,-12 0,-12 0,-6 -6,-12 -12,-12"
         id="path13" />
      <text
         text-anchor="middle"
         x="167"
         y="-303.5"
         font-family="sans"
         font-size="10px"
         id="text13"
         style="-inkscape-font-specification:'Arial, Normal';font-family:Arial;font-weight:normal;font-style:normal;font-stretch:normal;font-variant:normal;font-size:9.99999977px;font-variant-ligatures:normal;font-variant-caps:normal;font-variant-numeric:normal;font-variant-east-asian:normal">curve</text>
    </g>
    <!-- 3&#45;&gt;2 -->
    <g
       id="edge6"
       class="edge"
       transform="translate(-13)">
      <title
         id="title14">3-&gt;2</title>
      <path
         fill="none"
         stroke="#808080"
         stroke-width="2"
         d="m 167,-287 c 0,7.714 0,16.985 0,25.585"
         id="path14" />
      <polygon
         fill="#808080"
         stroke="#808080"
         points="163.5,-262.104 170.5,-262.104 167,-252.104 "
         id="polygon14"
         transform="translate(0,-2.4095443)" />
    </g>
    <!-- 4 -->
    <g
       id="node5"
       class="node"
       transform="translate(-13)">
      <title
         id="title15">4</title>
      <path
         fill="none"
         stroke="#59d856"
         stroke-width="2"
         d="m 182,-396 c 0,0 -30,0 -30,0 -6,0 -12,6 -12,12 0,0 0,12 0,12 0,6 6,12 12,12 0,0 30,0 30,0 6,0 12,-6 12,-12 0,0 0,-12 0,-12 0,-6 -6,-12 -12,-12"
         id="path15" />
      <text
         text-anchor="middle"
         x="167"
         y="-375.5"
         font-family="sans"
         font-size="10px"
         id="text15"
         style="-inkscape-font-specification:'Arial, Normal';font-family:Arial;font-weight:normal;font-style:normal;font-stretch:normal;font-variant:normal;font-size:9.99999977px;font-variant-ligatures:normal;font-variant-caps:normal;font-variant-numeric:normal;font-variant-east-asian:normal">regions</text>
    </g>
    <!-- 4&#45;&gt;3 -->
    <g
       id="edge7"
       class="edge"
       transform="translate(-13)">
      <title
         id="title16">4-&gt;3</title>
      <path
         fill="none"
         stroke="#808080"
         stroke-width="2"
         d="m 167,-359 c 0,7.714 0,16.985 0,25.585"
         id="path16" />
      <polygon
         fill="#808080"
         stroke="#808080"
         points="163.5,-334.104 170.5,-334.104 167,-324.104 "
         id="polygon16"
         transform="translate(0,-2.4095443)" />
    </g>
    <!-- 5&#45;&gt;1 -->
    <!-- 5&#45;&gt;6 -->
    <g
       id="edge10"
       class="edge">
      <title
         id="title18">5-&gt;6</title>
    </g>
    <!-- 5&#45;&gt;7 -->
    <!-- 6&#45;&gt;0 -->
    <g
       id="edge1"
       class="edge">
      <title
         id="title20">6-&gt;0</title>
      <path
         fill="none"
         stroke="#808080"
         stroke-width="2"
         d="m 154,-71 c 0,7.7139 0,16.9841 0,25.5842"
         id="path20" />
      <polygon
         fill="#808080"
         stroke="#808080"
         points="154,-36.1043 150.5,-46.1044 157.5,-46.1043 "
         id="polygon20"
         transform="translate(0,-2.409251)" />
    </g>
    <g
       id="edge1-3"
       class="edge"
       transform="translate(2.3596354e-6,-143.3034)">
      <title
         id="title20-3">6-&gt;0</title>
      <path
         fill="none"
         stroke="#808080"
         stroke-width="2"
         d="m 154,-71.6966 c 0,7.7139 0,16.9841 0,25.5842"
         id="path20-8" />
      <polygon
         fill="#808080"
         stroke="#808080"
         points="154,-36.1043 150.5,-46.1044 157.5,-46.1043 "
         id="polygon20-4"
         transform="translate(0,-3.105851)" />
    </g>
    <g
       id="edge1-3-3"
       class="edge"
       transform="translate(2.3596354e-6,-71.3034)">
      <title
         id="title20-3-0">6-&gt;0</title>
      <path
         fill="none"
         stroke="#808080"
         stroke-width="2"
         d="m 154,-71.6966 c 0,7.7139 0,16.9841 0,25.5842"
         id="path20-8-1" />
      <polygon
         fill="#808080"
         stroke="#808080"
         points="150.5,-46.1044 157.5,-46.1043 154,-36.1043 "
         id="polygon20-4-6"
         transform="translate(0,-3.105851)" />
    </g>
    <!-- 7&#45;&gt;0 -->
  </g>
</svg>
